# xmcd
#
# Track frame offsets: 
#        150
#        18123
#        45471
#        61944
#        92442
#        109440
#        111813
#        132861
#        150234
#        192882
#        207030
#
# Disc length: 2810 seconds
#
# Revision: 0
# Processed by: cddbd v1.5.2PL0 Copyright (c) Steve Scherf et al.
# Submitted via: ExactAudioCopy v0.99pb1
#
DISCID=800af80b
DTITLE=Elmer Ferrer Band - Fango Dance
DYEAR=2005
DGENRE=Blues
TTITLE0=Estatica
TTITLE1=El mar no descansa
TTITLE2=Crazy window
TTITLE3=Fango dance
TTITLE4=Couldn't stand the weather
TTITLE5=Leopardo negro
TTITLE6=Natural hardware
TTITLE7=Come together
TTITLE8=E-Blues
TTITLE9="Satch"arina
TTITLE10=Bonus Track ("Apagon")
EXTD=
EXTT0=
EXTT1=
EXTT2=
EXTT3=
EXTT4=
EXTT5=
EXTT6=
EXTT7=
EXTT8=
EXTT9=
EXTT10=
PLAYORDER=
